<svg
          width="479"
          height="106"
          viewBox="0 0 479 106"
          fill="none"
          xmlns="http://www.w3.org/2000/svg"
        >
          <path
            d="M8.11692 42.4124H0V50.5293H8.11692V42.4124Z"
            fill="#00FFA7"
          />
          <path
            d="M24.2029 28.9433H13.3951V39.7511H24.2029V28.9433Z"
            fill="#00FFA7"
          />
          <path
            d="M22.5913 47.8385H17.1801V53.2498H22.5913V47.8385Z"
            fill="#00FFA7"
          />
          <path
            d="M45.6115 82.9527C47.09 82.3761 48.4651 81.489 49.7514 80.2471L55.4287 86.3976C51.9691 90.36 46.9126 92.3411 40.2594 92.3411C36.1048 92.3411 32.4381 91.528 29.2594 89.9164C26.0658 88.3049 23.6115 86.0575 21.8817 83.1893C20.1519 80.321 19.2795 77.0535 19.2795 73.4164C19.2795 69.7793 20.1371 66.571 21.8374 63.6732C23.5525 60.7753 25.8884 58.528 28.875 56.9016C31.8615 55.2901 35.2177 54.4769 38.9583 54.4769C42.4623 54.4769 45.6559 55.2162 48.5242 56.6947C51.3925 58.1732 53.6841 60.3169 55.3991 63.1261C57.1142 65.9352 57.957 69.2471 57.957 73.0764L30.7527 78.3398C31.5215 80.1584 32.7487 81.5333 34.4046 82.4352C36.0605 83.3519 38.1008 83.7955 40.5255 83.7955C42.4328 83.7955 44.133 83.5146 45.6115 82.9379V82.9527ZM32.3938 65.1517C30.7083 66.8815 29.8212 69.2766 29.7325 72.3223L47.6371 68.8331C47.1344 66.9258 46.1143 65.3882 44.5618 64.2498C43.0094 63.1113 41.1465 62.5347 38.9583 62.5347C36.2674 62.5347 34.0793 63.407 32.3938 65.1369V65.1517Z"
            fill="#D8D8D8"
          />
          <path
            d="M100.952 55.0387L85.4274 91.8089H74.4274L58.9772 55.0387H69.9772L80.1639 80.0549L90.6908 55.0387H100.952Z"
            fill="#D8D8D8"
          />
          <path
            d="M111.375 89.9312C108.3 88.3196 105.89 86.0723 104.16 83.2041C102.43 80.3358 101.558 77.0683 101.558 73.4312C101.558 69.7941 102.415 66.5266 104.16 63.6584C105.89 60.7901 108.3 58.5428 111.375 56.9312C114.45 55.3196 117.925 54.5065 121.798 54.5065C125.672 54.5065 129.132 55.3196 132.192 56.9312C135.238 58.5428 137.633 60.7901 139.363 63.6584C141.093 66.5266 141.965 69.7941 141.965 73.4312C141.965 77.0683 141.093 80.3358 139.363 83.2041C137.633 86.0723 135.238 88.3196 132.192 89.9312C129.132 91.5428 125.672 92.3559 121.798 92.3559C117.925 92.3559 114.45 91.5428 111.375 89.9312ZM128.525 80.8385C130.285 78.9903 131.157 76.5213 131.157 73.4164C131.157 70.3116 130.285 67.8425 128.525 65.9944C126.766 64.1463 124.534 63.2296 121.798 63.2296C119.063 63.2296 116.801 64.1463 115.027 65.9944C113.253 67.8425 112.366 70.3116 112.366 73.4164C112.366 76.5213 113.253 78.9903 115.027 80.8385C116.801 82.6866 119.063 83.6032 121.798 83.6032C124.534 83.6032 126.781 82.6866 128.525 80.8385Z"
            fill="#D8D8D8"
          />
          <path
            d="M152.566 89.0441C150.245 86.8411 149.077 83.7067 149.077 79.6409V41.0818H159.737V79.0199C159.737 80.5723 160.136 81.7699 160.934 82.6127C161.733 83.4554 162.856 83.8694 164.32 83.8694C164.867 83.8694 165.429 83.7955 165.991 83.6624C166.552 83.5293 167.011 83.3667 167.321 83.1893L167.794 91.454C166.02 92.0454 164.172 92.3411 162.25 92.3411C158.095 92.3411 154.872 91.2323 152.551 89.0293L152.566 89.0441Z"
            fill="#D8D8D8"
          />
          <path
            d="M210.109 55.0387V91.8089H199.996V87.4325C198.577 89.0293 196.891 90.2417 194.939 91.0844C192.973 91.9272 190.859 92.3412 188.582 92.3412C183.747 92.3412 179.918 90.9514 177.094 88.1718C174.27 85.3922 172.851 81.2672 172.851 75.7968V55.0092H183.511V74.2148C183.511 80.1436 185.995 83.1006 190.962 83.1006C193.52 83.1006 195.56 82.2726 197.113 80.6019C198.665 78.946 199.434 76.4621 199.434 73.1799V54.9944H210.094L210.109 55.0387Z"
            fill="#D8D8D8"
          />
          <path
            d="M242.177 90.0347C241.128 90.8035 239.841 91.3949 238.319 91.7793C236.796 92.1637 235.214 92.3559 233.573 92.3559C229.152 92.3559 225.751 91.247 223.386 88.9997C221.02 86.7672 219.837 83.485 219.837 79.153V46.8922H230.497V55.8519H239.59V64.0575H230.497V79.0199C230.497 80.5723 230.882 81.7699 231.665 82.6127C232.434 83.4554 233.558 83.8694 235.022 83.8694C236.663 83.8694 238.126 83.411 239.398 82.5092L242.207 90.0347H242.177Z"
            fill="#D8D8D8"
          />
          <path
            d="M248.742 48.1933C247.515 47.0549 246.894 45.6355 246.894 43.95C246.894 42.2645 247.515 40.8452 248.742 39.7067C249.969 38.5683 251.566 37.9917 253.532 37.9917C255.499 37.9917 257.081 38.5388 258.323 39.6328C259.55 40.7269 260.171 42.0871 260.171 43.7282C260.171 45.5024 259.55 46.981 258.323 48.1342C257.095 49.3022 255.499 49.8788 253.532 49.8788C251.566 49.8788 249.984 49.3022 248.742 48.1637V48.1933ZM248.195 55.0387H258.855V91.8089H248.195V55.0387Z"
            fill="#D8D8D8"
          />
          <path
            d="M275.843 89.9312C272.767 88.3196 270.358 86.0723 268.628 83.2041C266.898 80.3358 266.026 77.0683 266.026 73.4312C266.026 69.7941 266.883 66.5266 268.628 63.6584C270.358 60.7901 272.767 58.5428 275.843 56.9312C278.918 55.3196 282.392 54.5065 286.266 54.5065C290.14 54.5065 293.599 55.3196 296.66 56.9312C299.706 58.5428 302.101 60.7901 303.831 63.6584C305.56 66.5266 306.433 69.7941 306.433 73.4312C306.433 77.0683 305.56 80.3358 303.831 83.2041C302.101 86.0723 299.706 88.3196 296.66 89.9312C293.599 91.5428 290.14 92.3559 286.266 92.3559C282.392 92.3559 278.918 91.5428 275.843 89.9312ZM292.993 80.8385C294.753 78.9903 295.625 76.5213 295.625 73.4164C295.625 70.3116 294.753 67.8425 292.993 65.9944C291.234 64.1463 289.001 63.2296 286.266 63.2296C283.531 63.2296 281.269 64.1463 279.495 65.9944C277.72 67.8425 276.833 70.3116 276.833 73.4164C276.833 76.5213 277.72 78.9903 279.495 80.8385C281.269 82.6866 283.531 83.6032 286.266 83.6032C289.001 83.6032 291.249 82.6866 292.993 80.8385Z"
            fill="#D8D8D8"
          />
          <path
            d="M346.929 58.5871C349.738 61.3224 351.128 65.3734 351.128 70.7551V91.8089H340.468V72.3963C340.468 69.4836 339.832 67.3102 338.56 65.8613C337.289 64.4272 335.441 63.7027 333.016 63.7027C330.325 63.7027 328.181 64.5307 326.585 66.2014C324.988 67.8721 324.19 70.3411 324.19 73.6234V91.8089H313.53V55.0387H323.716V59.3411C325.136 57.7887 326.88 56.5912 328.98 55.7484C331.079 54.9057 333.371 54.4917 335.884 54.4917C340.438 54.4917 344.12 55.8519 346.929 58.5871Z"
            fill="#D8D8D8"
          />
          <path
            d="M398.499 55.0387V91.8089H388.312V87.5656C385.665 90.7591 381.836 92.3559 376.824 92.3559C373.364 92.3559 370.23 91.5871 367.421 90.0347C364.612 88.4823 362.423 86.2793 360.827 83.411C359.23 80.5428 358.431 77.2161 358.431 73.4312C358.431 69.6462 359.23 66.3196 360.827 63.4514C362.423 60.5831 364.626 58.3654 367.421 56.8277C370.23 55.2753 373.349 54.5065 376.824 54.5065C381.511 54.5065 385.192 55.985 387.824 58.942V55.0387H398.484H398.499ZM385.384 80.8385C387.159 78.9903 388.046 76.5213 388.046 73.4164C388.046 70.3116 387.159 67.8425 385.384 65.9944C383.61 64.1463 381.378 63.2296 378.687 63.2296C375.996 63.2296 373.69 64.1463 371.915 65.9944C370.141 67.8425 369.254 70.3116 369.254 73.4164C369.254 76.5213 370.141 78.9903 371.915 80.8385C373.69 82.6866 375.952 83.6032 378.687 83.6032C381.422 83.6032 383.61 82.6866 385.384 80.8385Z"
            fill="#00FFA7"
          />
          <path
            d="M439.423 56.8425C442.232 58.4097 444.421 60.6274 446.017 63.4662C447.614 66.3196 448.413 69.6315 448.413 73.4164C448.413 77.2014 447.614 80.5132 446.017 83.3667C444.421 86.2202 442.218 88.4231 439.423 89.9903C436.629 91.5576 433.509 92.3411 430.094 92.3411C425.407 92.3411 421.711 90.8627 419.02 87.9057V105.056H408.36V55.024H418.547V59.2672C421.193 56.0737 425.038 54.4769 430.094 54.4769C433.509 54.4769 436.629 55.2605 439.423 56.8277V56.8425ZM434.973 80.8385C436.732 78.9903 437.605 76.5213 437.605 73.4164C437.605 70.3116 436.732 67.8425 434.973 65.9944C433.214 64.1462 430.981 63.2296 428.246 63.2296C425.511 63.2296 423.263 64.1462 421.519 65.9944C419.759 67.8425 418.887 70.3116 418.887 73.4164C418.887 76.5213 419.759 78.9903 421.519 80.8385C423.278 82.6866 425.511 83.6032 428.246 83.6032C430.981 83.6032 433.228 82.6866 434.973 80.8385Z"
            fill="#00FFA7"
          />
          <path
            d="M455.509 55.0387H466.169V91.8089H455.509V55.0387Z"
            fill="#00FFA7"
          />
          <path
            d="M430.079 36.7645C432.829 37.9769 436.038 36.7646 437.324 34.0589L448.693 37.6812C448.516 42.0723 450.97 46.3304 455.228 48.2081C460.773 50.6624 467.278 48.149 469.718 42.5898C472.068 37.2672 469.851 31.0871 464.765 28.4258L470.679 12.8573C473.503 13.3156 476.401 11.8371 477.613 9.08713C479.047 5.81966 477.569 1.99037 474.301 0.556234C471.034 -0.89269 467.204 0.58579 465.77 3.86805C464.469 6.82504 465.563 10.2404 468.21 11.9259L462.296 27.4944C457.21 26.2229 451.783 28.7511 449.595 33.7189C449.403 34.1624 449.241 34.6207 449.107 35.0643L437.827 31.4716C437.738 29.4312 436.526 27.5091 434.53 26.6221C431.72 25.3801 428.453 26.6516 427.211 29.4608C425.984 32.2551 427.241 35.5374 430.05 36.7793L430.079 36.7645Z"
            fill="#00FFA7"
          />
        </svg>